<svg xmlns="http://www.w3.org/2000/svg" viewBox="0 0 32 32">
  <rect width="32" height="32" rx="6" fill="#1e293b"/>
  <path d="M8 6h16a2 2 0 0 1 2 2v16a2 2 0 0 1-2 2H8a2 2 0 0 1-2-2V8a2 2 0 0 1 2-2z" fill="#334155"/>
  <path d="M10 8h12v14H10z" fill="#facc15"/>
  <path d="M10 8c-1.1 0-2 .9-2 2v14c0 1.1.9 2 2 2h12v-18H10z" fill="#eab308"/>
  <rect x="12" y="11" width="8" height="1" fill="#1e293b" opacity="0.3"/>
  <rect x="12" y="14" width="8" height="1" fill="#1e293b" opacity="0.3"/>
  <rect x="12" y="17" width="8" height="1" fill="#1e293b" opacity="0.3"/>
</svg>
